<?xml version="1.0" encoding="utf-8"?>
<!-- Generator: Adobe Illustrator 23.0.0, SVG Export Plug-In . SVG Version: 6.00 Build 0)  -->
<svg version="1.1" xmlns="http://www.w3.org/2000/svg" xmlns:xlink="http://www.w3.org/1999/xlink" x="0px" y="0px"
	 viewBox="0 0 2500 2229" style="enable-background:new 0 0 2500 2229;" xml:space="preserve">
<style type="text/css">
	.st0{fill:#1CCB9E;}
	.st1{fill:#7A4EF4;}
	.st2{fill:#F9B721;}
	.st3{fill:#1DD1EF;}
	.st4{fill:#F98130;}
	.st5{fill:#FC1D82;}
	.st6{fill:#CED5D8;}
	.st7{fill:#F91944;}
	.st8{fill:#F9F7F8;}
	.st9{fill:#282833;}
	.st10{fill:#FFFFFF;}
</style>
<g id="Layer_1">
	<title>Slice 1</title>
</g>
<g id="Layer_2">
</g>
<g id="Layer_3">
	<g>
		<g>
			<path class="st0" d="M1250,711.8v-105c-158.9,0-313.3,11-458.8,32.8c-142.2,21.3-270.6,51.9-381.4,91.2
				c-116.4,41.2-209.4,90.4-276.4,146.4c-38.5,32.2-68.8,67-89.9,103.6c-24.7,42.7-37.3,87.7-37.3,133.7h105
				C111.3,892.1,621.1,711.8,1250,711.8z"/>
		</g>
		<path class="st0" d="M133.4,1351.8c67,56,160,105.3,276.4,146.4c110.9,39.2,239.2,69.9,381.4,91.2
			c145.5,21.8,299.9,32.8,458.8,32.8v-105c-628.9,0-1138.7-180.3-1138.7-402.7H6.3c0,46,12.5,91,37.3,133.7
			C64.6,1284.8,94.9,1319.6,133.4,1351.8z"/>
	</g>
	<g>
		<path class="st1" d="M1819.4,128.3l52.5-90.9c-39.9-23-85.1-34.7-134.5-34.6c-42.2,0-87.5,8.8-134.6,26.1
			c-82,30-171.2,85.9-265,166.1c-89.4,76.4-180.1,172.2-269.7,284.8C976.5,594.9,889.8,723,810.3,860.7l90.9,52.5
			C1215.7,368.5,1626.8,17.1,1819.4,128.3z"/>
		<path class="st2" d="M1598.7,913.2l90.9-52.5c-79.5-137.6-166.2-265.8-257.8-380.9c-89.5-112.5-180.3-208.3-269.7-284.8
			c-93.9-80.2-183-136.1-265-166.1c-47.1-17.3-92.4-26-134.6-26.1c-49.4,0-94.6,11.6-134.5,34.6l52.5,90.9
			C873.2,17.1,1284.3,368.5,1598.7,913.2z"/>
		<path class="st3" d="M2388.7,1114.5h105c0-46-12.5-91-37.3-133.7c-21.1-36.5-51.4-71.4-89.9-103.6c-67-56-160-105.3-276.4-146.4
			c-110.9-39.2-239.2-69.9-381.4-91.2c-145.5-21.8-299.9-32.8-458.8-32.8v105C1878.9,711.8,2388.7,892.1,2388.7,1114.5z"/>
		<path class="st2" d="M486.2,266.1c-15,86-11.2,191.2,11.4,312.6c21.5,115.6,59.1,242.1,111.8,375.9
			c53.9,136.9,121.5,276.1,201,413.7l90.9-52.5C586.8,771.2,488,239.5,680.6,128.3l-52.5-90.9c-39.9,23-72.6,56.4-97.2,99.1
			C509.9,173.1,494.8,216.7,486.2,266.1z"/>
	</g>
	<g>
		<path class="st4" d="M901.3,913.2l-90.9-52.5c-79.5,137.6-147.1,276.8-201,413.7c-52.7,133.8-90.3,260.3-111.8,375.9
			c-22.6,121.4-26.4,226.6-11.4,312.6c8.6,49.5,23.7,93.1,44.7,129.6c24.6,42.8,57.3,76.1,97.2,99.1l52.5-90.9
			C488,1989.5,586.8,1457.8,901.3,913.2z"/>
		<path class="st4" d="M897.2,2200.2c82-30,171.2-85.9,265-166.1c89.4-76.4,180.1-172.2,269.7-284.8
			c91.6-115.1,178.3-243.3,257.8-380.9l-90.9-52.5c-314.5,544.7-725.5,896-918.1,784.8l-52.5,90.9c39.9,23,85.1,34.7,134.5,34.6
			C804.8,2226.2,850.1,2217.4,897.2,2200.2z"/>
	</g>
	<path class="st3" d="M1250,1517.2v105c158.9,0,313.3-11,458.8-32.8c142.2-21.3,270.5-51.9,381.4-91.2
		c116.4-41.2,209.4-90.4,276.4-146.4c38.5-32.2,68.8-67,89.9-103.6c24.7-42.7,37.3-87.7,37.3-133.7h-105
		C2388.7,1336.9,1878.9,1517.2,1250,1517.2z"/>
	<path class="st5" d="M901.3,1315.8l-90.9,52.5c79.5,137.6,166.2,265.8,257.8,380.9c89.5,112.5,180.3,208.3,269.7,284.8
		c93.9,80.2,183,136.1,265,166.1c47.1,17.3,92.4,26,134.6,26.1c49.4,0,94.6-11.6,134.5-34.6l-52.5-90.9
		C1626.8,2211.9,1215.7,1860.5,901.3,1315.8z"/>
	<path class="st5" d="M1819.4,2100.7l52.5,90.9c39.9-23,72.6-56.4,97.2-99.1c21.1-36.6,36.1-80.2,44.7-129.6
		c15-86,11.2-191.2-11.4-312.6c-21.5-115.6-59.1-242.1-111.8-375.9c-53.9-136.9-121.5-276.1-201-413.7l-90.9,52.5
		C1913.2,1457.8,2012,1989.5,1819.4,2100.7z"/>
	<path class="st1" d="M1598.7,1315.8l90.9,52.5c79.5-137.6,147.1-276.8,201-413.7c52.7-133.8,90.3-260.3,111.8-375.9
		c22.6-121.4,26.4-226.6,11.4-312.6c-8.6-49.5-23.7-93.1-44.7-129.6c-24.6-42.8-57.3-76.1-97.2-99.1l-52.5,90.9
		C2012,239.5,1913.2,771.2,1598.7,1315.8z"/>
	<g>
		<path class="st6" d="M1598.7,1604.7H897.2c-89,0-161.9-72.8-161.9-161.9v44.8c0,89,72.8,161.9,161.9,161.9h701.5
			c89,0,161.9-72.8,161.9-161.9v-44.8C1760.5,1531.9,1687.7,1604.7,1598.7,1604.7z"/>
		<path class="st7" d="M1602.8,579.5L1602.8,579.5H901.3c0,0,0,0,0,0c-89,0-161.9,72.8-161.9,161.9v20.9h1021.1h4.1v-20.9
			C1764.6,652.4,1691.8,579.5,1602.8,579.5z M1165.2,686.7c0,6.4-0.8,12.2-2.4,17.3c-1.6,5.1-3.9,9.5-7.1,13.2
			c-3.1,3.6-7,6.4-11.7,8.4c-4.7,1.9-10.1,2.9-16.3,2.9c-2.8,0-5.6-0.2-8.4-0.5c-2.7-0.3-5.6-0.9-8.6-1.6c0.2-2.1,0.3-4.2,0.6-6.3
			c0.2-2.1,0.4-4.2,0.6-6.3c0.2-1.2,0.6-2.1,1.4-2.8c0.8-0.7,1.9-1.1,3.3-1.1c0.9,0,2.1,0.2,3.5,0.6c1.4,0.4,3.3,0.6,5.5,0.6
			c3,0,5.6-0.4,8-1.3c2.3-0.9,4.2-2.2,5.8-4.1c1.5-1.9,2.7-4.3,3.5-7.4c0.8-3,1.2-6.7,1.2-11v-73.9h21.2V686.7z M1269,727.2
			c-1.8,0-3.3-0.5-4.5-1.4c-1.2-0.9-2-2.1-2.6-3.4l-8.5-23.2h-47.2l-8.5,23.2c-0.4,1.2-1.2,2.3-2.4,3.3c-1.2,1-2.7,1.5-4.5,1.5
			h-16.5l44.8-113.9h21.6l44.8,113.9H1269z M1393.2,727.2h-10.9c-1.7,0-3.1-0.3-4.2-0.8c-1.1-0.6-2.2-1.5-3.3-2.8l-59.5-76
			c0.3,3.5,0.5,6.7,0.5,9.6v70h-18.7V613.3h11.1c0.9,0,1.7,0,2.3,0.1c0.7,0.1,1.2,0.2,1.7,0.5c0.5,0.2,1,0.6,1.5,1
			c0.5,0.4,1,1,1.6,1.8l59.7,76.3c-0.2-1.8-0.3-3.7-0.4-5.4c-0.1-1.8-0.2-3.4-0.2-5v-69.3h18.7V727.2z"/>
		<path class="st7" d="M1232,640.3c-0.7-2.3-1.5-4.8-2.2-7.5c-0.7,2.7-1.4,5.2-2.1,7.5c-0.7,2.3-1.4,4.4-2.1,6.1l-13.8,37.7h36.2
			l-13.9-37.9C1233.4,644.6,1232.7,642.6,1232,640.3z"/>
		<path class="st8" d="M735.4,762.3V807v635.8c0,89,72.8,161.9,161.9,161.9h701.5c89,0,161.9-72.8,161.9-161.9V807v-44.8H739.5
			H735.4z M1388.7,1420.2h-253.2v-44.8h101.2v-322.1c0-9.7,0.3-19.5,1-29.3l-84.1,72.2c-2.9,2.4-5.7,3.9-8.6,4.5
			c-2.9,0.6-5.5,0.6-7.9,0.2c-2.4-0.4-4.7-1.3-6.8-2.6c-2.1-1.3-3.7-2.7-4.8-4.3l-18.5-25.4L1248,946.8h47.8v428.6h93V1420.2z"/>
		<path class="st9" d="M1295.8,946.8H1248l-140.8,121.6l18.5,25.4c1.1,1.5,2.7,3,4.8,4.3c2.1,1.3,4.3,2.2,6.8,2.6
			c2.4,0.4,5.1,0.4,7.9-0.2c2.9-0.5,5.7-2,8.6-4.5l84.1-72.2c-0.7,9.9-1,19.7-1,29.3v322.1h-101.2v44.8h253.2v-44.8h-93V946.8z"/>
		<path class="st10" d="M1144,687.2c0,4.3-0.4,8-1.2,11c-0.8,3-2,5.5-3.5,7.4c-1.5,1.9-3.5,3.3-5.8,4.1c-2.3,0.9-5,1.3-8,1.3
			c-2.2,0-4-0.2-5.5-0.6c-1.4-0.4-2.6-0.6-3.5-0.6c-1.4,0-2.5,0.4-3.3,1.1c-0.8,0.7-1.2,1.6-1.4,2.8c-0.2,2.1-0.3,4.2-0.6,6.3
			c-0.2,2.1-0.4,4.2-0.6,6.3c3,0.7,5.9,1.3,8.6,1.6c2.7,0.3,5.5,0.5,8.4,0.5c6.2,0,11.6-1,16.3-2.9c4.7-1.9,8.6-4.7,11.7-8.4
			c3.1-3.6,5.5-8,7.1-13.2c1.6-5.1,2.4-10.9,2.4-17.3v-73.4H1144V687.2z"/>
		<path class="st10" d="M1219,613.3l-44.8,113.9h16.5c1.8,0,3.3-0.5,4.5-1.5c1.2-1,2-2.1,2.4-3.3l8.5-23.2h47.2l8.5,23.2
			c0.6,1.4,1.4,2.5,2.6,3.4c1.2,0.9,2.7,1.4,4.5,1.4h16.4l-44.8-113.9H1219z M1211.7,684.2l13.8-37.7c0.7-1.7,1.4-3.8,2.1-6.1
			c0.7-2.3,1.4-4.8,2.1-7.5c0.7,2.7,1.5,5.2,2.2,7.5c0.7,2.3,1.4,4.3,2.1,6l13.9,37.9H1211.7z"/>
		<path class="st10" d="M1374.6,682.5c0,1.5,0.1,3.2,0.2,5c0.1,1.8,0.2,3.6,0.4,5.4l-59.7-76.3c-0.6-0.7-1.1-1.3-1.6-1.8
			c-0.5-0.4-1-0.8-1.5-1c-0.5-0.2-1.1-0.4-1.7-0.5c-0.7-0.1-1.4-0.1-2.3-0.1h-11.1v113.9h18.7v-70c0-2.9-0.2-6.1-0.5-9.6l59.5,76
			c1.1,1.3,2.1,2.2,3.3,2.8c1.1,0.6,2.5,0.8,4.2,0.8h10.9V613.3h-18.7V682.5z"/>
	</g>
</g>
</svg>
